{"title":"Bol Bachchan 2012 Hindi DvDrip 720p Hi10p x264...Hon3y","uid":7655509,"size":2665112976,"categoryP":"video","categoryS":"hd___movies","magnet":"?xt=urn:btih:3404d7148b3500ee9003dfe5704aa933d8834772&amp;dn=Bol+Bachchan+2012+Hindi+DvDrip+720p+Hi10p+x264...Hon3y&amp;tr=udp%3A%2F%2Ftracker.openbittorrent.com%3A80&amp;tr=udp%3A%2F%2Fopen.demonii.com%3A1337&amp;tr=udp%3A%2F%2Ftracker.coppersurfer.tk%3A6969&amp;tr=udp%3A%2F%2Fexodus.desync.com%3A6969","seeders":0,"leechers":1,"uploader":"honey8ee","files":-1,"time":1348142273,"description":"What is Hi10P ?\n\nHi10P is the advanced version of the normal x264. This gives more quality for the same size. \nYou have the ability to watch Ultra Quality movies with the new Hi10P encodes.\n\nHi10P needs Updated, Advanced video players. \n\ni recommend VLC or Media Player Classic because it's pretty easy.\nBut, you can select any of your choice.(if problem to play then intsall k-lite codecs pack)\n\n\n &lt;a href=&quot;\nhttp://en.wikipedia.org/wiki/Bol_Bachchan]&quot; rel=&quot;nofollow&quot; target=&quot;_NEW&quot;&gt;\nhttp://en.wikipedia.org/wiki/Bol_Bachchan]&lt;/a&gt;\n &lt;a href=&quot;\nhttp://www.imdb.com/title/tt1728986/&quot; rel=&quot;nofollow&quot; target=&quot;_NEW&quot;&gt;\nhttp://www.imdb.com/title/tt1728986/&lt;/a&gt;\n\nSource                                   : DVD9\nFormat                                   : Matroska\nFormat version                           : Version 2\nFile size                                : 2.45 GiB\nDuration                                 : 2h 23mn\nOverall bit rate                         : 2 448 Kbps\n\n\nVideo\nID                                       : 1\nFormat                                   : AVC\nFormat/Info                              : Advanced Video Codec\nFormat profile                           : High &lt;a class=&quot;__cf_email__&quot; href=&quot;/cdn-cgi/l/email-protection&quot; data-cfemail=&quot;7f4e4f3f334b514e&quot;&gt;[email&amp;#160;protected]&lt;/a&gt;&lt;script cf-hash='f9e31' type=&quot;text/javascript&quot;&gt;\n/* &lt;![CDATA[ */!function(){try{var t=&quot;currentScript&quot;in document?document.currentScript:function(){for(var t=document.getElementsByTagName(&quot;script&quot;),e=t.length;e--;)if(t[e].getAttribute(&quot;cf-hash&quot;))return t[e]}();if(t&amp;&amp;t.previousSibling){var e,r,n,i,c=t.previousSibling,a=c.getAttribute(&quot;data-cfemail&quot;);if(a){for(e=&quot;&quot;,r=parseInt(a.substr(0,2),16),n=2;a.length-n;n+=2)i=parseInt(a.substr(n,2),16)^r,e+=String.fromCharCode(i);e=document.createTextNode(e),c.parentNode.replaceChild(e,c)}}}catch(u){}}();/* ]]&gt; */&lt;/script&gt;\nFormat settings, CABAC                   : Yes\nFormat settings, ReFrames                : 4 frames\nMuxing mode                              : Header stripping\nCodec ID                                 : V_MPEG4/ISO/AVC\nDuration                                 : 2h 23mn\nBit rate                                 : 2 000 Kbps\nWidth                                    : 1 280 pixels\nHeight                                   : 536 pixels\nDisplay aspect ratio                     : 2.35:1\nFrame rate                               : 23.976 fps\nColor space                              : YUV\nChroma subsampling                       : 4:2:0\nBit depth                                : 10 bits\nScan type                                : Progressive\nStream size                              : 1.96 GiB (80%)\n\n\nAudio\nID                                       : 2\nFormat                                   : AC-3\nBit rate mode                            : Constant\nBit rate                                 : 448 Kbps\nChannel(s)                               : 6 channels\nChannel positions                        : Front: L C R, Side: L R, LFE\nSampling rate                            : 48.0 KHz\nBit depth                                : 16 bits\nCompression mode                         : Lossy\nStream size                              : 460 MiB (18%)\nLanguage                                 : Hindi\nSubtitles                                : English\n\n\n &lt;a href=&quot;\nhttp://www.shotpix.com/images/07505105903528766358.png&quot; rel=&quot;nofollow&quot; target=&quot;_NEW&quot;&gt;\nhttp://www.shotpix.com/images/07505105903528766358.png&lt;/a&gt;\n &lt;a href=&quot;\nhttp://www.shotpix.com/images/68715093909833323466.png&quot; rel=&quot;nofollow&quot; target=&quot;_NEW&quot;&gt;\nhttp://www.shotpix.com/images/68715093909833323466.png&lt;/a&gt;\n &lt;a href=&quot;\nhttp://www.shotpix.com/images/99673876629839574558.png&quot; rel=&quot;nofollow&quot; target=&quot;_NEW&quot;&gt;\nhttp://www.shotpix.com/images/99673876629839574558.png&lt;/a&gt;\n &lt;a href=&quot;\nhttp://www.shotpix.com/images/33630498965004649204.png&quot; rel=&quot;nofollow&quot; target=&quot;_NEW&quot;&gt;\nhttp://www.shotpix.com/images/33630498965004649204.png&lt;/a&gt;\n &lt;a href=&quot;\nhttp://www.shotpix.com/images/50343405864361503198.png&quot; rel=&quot;nofollow&quot; target=&quot;_NEW&quot;&gt;\nhttp://www.shotpix.com/images/50343405864361503198.png&lt;/a&gt;\n &lt;a href=&quot;\nhttp://www.shotpix.com/images/43641811463057395449.png&quot; rel=&quot;nofollow&quot; target=&quot;_NEW&quot;&gt;\nhttp://www.shotpix.com/images/43641811463057395449.png&lt;/a&gt;\n &lt;a href=&quot;\nhttp://www.shotpix.com/images/28692812151138312950.png&quot; rel=&quot;nofollow&quot; target=&quot;_NEW&quot;&gt;\nhttp://www.shotpix.com/images/28692812151138312950.png&lt;/a&gt;\n &lt;a href=&quot;\nhttp://www.shotpix.com/images/13649698607174155550.png&quot; rel=&quot;nofollow&quot; target=&quot;_NEW&quot;&gt;\nhttp://www.shotpix.com/images/13649698607174155550.png&lt;/a&gt;\n\n                                  Check the sample First","torrent":{"xt":"urn:btih:3404d7148b3500ee9003dfe5704aa933d8834772","amp;dn":"Bol+Bachchan+2012+Hindi+DvDrip+720p+Hi10p+x264...Hon3y","amp;tr":["udp%3A%2F%2Ftracker.openbittorrent.com%3A80","udp%3A%2F%2Fopen.demonii.com%3A1337","udp%3A%2F%2Ftracker.coppersurfer.tk%3A6969","udp%3A%2F%2Fexodus.desync.com%3A6969"],"infoHash":"3404d7148b3500ee9003dfe5704aa933d8834772","infoHashBuffer":{"type":"Buffer","data":[52,4,215,20,139,53,0,238,144,3,223,229,112,74,169,51,216,131,71,114]},"announce":[],"urlList":[]}}